<svg width="94" height="90" viewBox="0 0 94 90" fill="none" xmlns="http://www.w3.org/2000/svg">
<path d="M1.13735 53.3908C-0.843656 50.5465 -0.171091 46.6134 2.6432 44.6088C5.45575 42.6043 9.34091 43.2848 11.3237 46.1326L11.4058 46.2528C13.3885 49.097 12.7142 53.0302 9.89992 55.0347C7.08912 57.0411 3.20222 56.3587 1.22121 53.511L1.13735 53.3908ZM47.905 56.8673L17.7943 13.9286C15.815 11.0702 16.5015 7.12827 19.3281 5.12723C22.1528 3.1262 26.0485 3.8209 28.026 6.67928L72.9788 70.9582C74.9581 73.8166 74.2716 77.7585 71.445 79.7596C68.6203 81.7624 64.7246 81.0677 62.7471 78.2075L47.905 56.8673ZM75.9284 66.1642L37.0279 9.94599C35.0504 7.08761 35.7369 3.14564 38.5617 1.14284C41.3882 -0.8582 45.2838 -0.163493 47.2614 2.69488L86.1618 58.9131C88.1393 61.7714 87.4528 65.7134 84.628 67.7144C81.8033 69.7155 77.9076 69.0208 75.9284 66.1624V66.1642ZM82.3308 43.6348L60.1397 11.5687C58.1622 8.7086 58.8487 4.76662 61.6735 2.76559C64.4982 0.764549 68.3939 1.45926 70.3731 4.31763L92.5625 36.3855C94.5418 39.2439 93.8553 43.1858 91.0287 45.1869C88.204 47.1897 84.3083 46.495 82.3308 43.6348ZM46.4158 87.0761L7.51537 30.8579C5.53611 27.9977 6.22265 24.0558 9.04917 22.0547C11.8739 20.0537 15.7696 20.7484 17.7471 23.6068L56.6476 79.8232C58.6268 82.6833 57.9403 86.6253 55.1138 88.6264C52.289 90.6274 48.3934 89.9327 46.4158 87.0743V87.0761ZM10.4991 66.9508C8.51985 64.0924 9.20639 60.1505 12.0329 58.1494C14.8577 56.1466 18.7533 56.8413 20.7308 59.7015L33.5358 78.2075C35.515 81.0659 34.8285 85.0079 32.002 87.0089C29.1772 89.0117 25.2816 88.317 23.3041 85.4569L10.4991 66.9508Z" fill="#4152A0"/>
</svg>
